<?xml version="1.0" encoding="UTF-8"?>
<svg id="Layer_2" data-name="Layer 2" xmlns="http://www.w3.org/2000/svg" viewBox="0 0 162.51 215.91">
  <defs>
    <style>
      .cls-1 {
        fill: none;
      }

      .cls-1, .cls-2 {
        stroke-width: 0px;
      }
    </style>
  </defs>
  <g id="logo">
    <g>
      <path class="cls-2" d="m138.32,34.22H24.05c-2.64,0-4.78,2.18-4.78,4.87v132.9c0,2.69,2.14,4.87,4.78,4.87h114.31c2.64,0,4.78-2.18,4.78-4.87V39.09c0-2.69-2.14-4.87-4.78-4.87m-2.45,131.76c0,1.4-1.11,2.53-2.48,2.53H28.98c-1.37,0-2.48-1.13-2.48-2.53v-3.78c.1.01.19.02.29.02h64.48c1.49,0,2.7-1.24,2.7-2.76s-1.21-2.76-2.7-2.76H26.8c-.1,0-.2,0-.29.02v-6.41h109.4v15.67Zm0-25.58c0,1.4-1.11,2.53-2.48,2.53H28.98c-1.37,0-2.48-1.13-2.48-2.53v-9.21c0-1.4,1.11-2.53,2.48-2.53h104.45c1.37,0,2.48,1.13,2.48,2.53v9.21Zm0-21.15c0,1.4-1.11,2.53-2.48,2.53H28.98c-1.37,0-2.48-1.13-2.48-2.53v-9.21c0-1.4,1.11-2.53,2.48-2.53h104.45c1.37,0,2.48,1.13,2.48,2.53v9.21Zm0-20.66c0,1.4-1.11,2.53-2.48,2.53H28.98c-1.37,0-2.48-1.13-2.48-2.53v-9.21c0-1.4,1.11-2.53,2.48-2.53h104.45c1.37,0,2.48,1.13,2.48,2.53v9.21Zm0-20.66c0,1.4-1.11,2.53-2.48,2.53H28.98c-1.37,0-2.48-1.13-2.48-2.53v-9.21c0-1.4,1.11-2.53,2.48-2.53h104.45c1.37,0,2.48,1.13,2.48,2.53v9.21Zm0-21.58H26.51v-11.74c0-1.4,1.11-2.53,2.48-2.53h104.45c1.37,0,2.48,1.13,2.48,2.53v11.74Z"/>
      <g>
        <path class="cls-2" d="m149.44,14.46h-19.73v6.75h19.73c3.49,0,6.32,2.84,6.32,6.32v175.31c0,3.49-2.84,6.32-6.32,6.32H13.07c-3.49,0-6.32-2.84-6.32-6.32V27.53c0-3.49,2.84-6.32,6.32-6.32h78.02v-6.75H13.07C5.86,14.46,0,20.32,0,27.53v175.31c0,7.21,5.86,13.07,13.07,13.07h136.37c7.21,0,13.07-5.86,13.07-13.07V27.53c0-7.21-5.86-13.07-13.07-13.07Z"/>
        <g>
          <path class="cls-1" d="m118.58,6.43c-2.89,0-5.24,2.3-5.24,5.14v22.81h10.47V11.57c0-2.84-2.34-5.14-5.24-5.14Z"/>
          <path class="cls-1" d="m102.22,6.43c-2.89,0-5.24,2.3-5.24,5.14v22.81h10.47V11.57c0-2.84-2.34-5.14-5.24-5.14Z"/>
          <path class="cls-2" d="m119.14,0h-17.48c-5.84,0-10.57,4.65-10.57,10.38v31.07h38.62V10.38c0-5.73-4.73-10.38-10.57-10.38Zm-11.69,34.38h-10.47V11.57c0-2.84,2.34-5.14,5.24-5.14s5.24,2.3,5.24,5.14v22.81Zm16.37,0h-10.47V11.57c0-2.84,2.34-5.14,5.24-5.14s5.24,2.3,5.24,5.14v22.81Z"/>
        </g>
      </g>
      <path class="cls-2" d="m20.03,194.27c0,2.16,1.75,3.91,3.91,3.91h116.26c2.16,0,3.91-1.75,3.91-3.91v-3.91H20.03v3.91Z"/>
    </g>
  </g>
</svg>