<?xml version="1.0" encoding="UTF-8"?>
<svg id="Layer_2" data-name="Layer 2" xmlns="http://www.w3.org/2000/svg" viewBox="0 0 162.51 215.91">
  <defs>
    <style>
      .cls-1 {
        fill: #fff;
        stroke-width: 0px;
      }
    </style>
  </defs>
  <g id="logo_dark" data-name="logo dark">
    <path class="cls-1" d="m20.03,194.27c0,2.16,1.75,3.91,3.91,3.91h116.26c2.16,0,3.91-1.75,3.91-3.91v-3.91H20.03v3.91Z"/>
    <path class="cls-1" d="m149.44,14.46h-19.73v-4.08c0-5.73-4.73-10.38-10.57-10.38h-17.48c-5.84,0-10.57,4.65-10.57,10.38v4.08H13.07C5.86,14.46,0,20.32,0,27.53v175.31c0,7.21,5.86,13.07,13.07,13.07h136.37c7.21,0,13.07-5.86,13.07-13.07V27.53c0-7.21-5.86-13.07-13.07-13.07Zm-58.16,142.25H26.8c-.1,0-.2,0-.29.02v-6.41h109.4v15.67c0,1.4-1.11,2.53-2.48,2.53H28.98c-1.37,0-2.48-1.13-2.48-2.53v-3.78c.1.01.19.02.29.02h64.48c1.49,0,2.7-1.24,2.7-2.76s-1.21-2.76-2.7-2.76Zm42.16-13.77H28.98c-1.37,0-2.48-1.13-2.48-2.53v-9.21c0-1.4,1.11-2.53,2.48-2.53h104.45c1.37,0,2.48,1.13,2.48,2.53v9.21c0,1.4-1.11,2.53-2.48,2.53Zm0-21.15H28.98c-1.37,0-2.48-1.13-2.48-2.53v-9.21c0-1.4,1.11-2.53,2.48-2.53h104.45c1.37,0,2.48,1.13,2.48,2.53v9.21c0,1.4-1.11,2.53-2.48,2.53Zm0-20.66H28.98c-1.37,0-2.48-1.13-2.48-2.53v-9.21c0-1.4,1.11-2.53,2.48-2.53h104.45c1.37,0,2.48,1.13,2.48,2.53v9.21c0,1.4-1.11,2.53-2.48,2.53Zm0-20.66H28.98c-1.37,0-2.48-1.13-2.48-2.53v-9.21c0-1.4,1.11-2.53,2.48-2.53h104.45c1.37,0,2.48,1.13,2.48,2.53v9.21c0,1.4-1.11,2.53-2.48,2.53ZM26.51,56.35v-11.74c0-1.4,1.11-2.53,2.48-2.53h104.45c1.37,0,2.48,1.13,2.48,2.53v11.74H26.51ZM113.34,11.57c0-2.84,2.34-5.14,5.24-5.14s5.24,2.3,5.24,5.14v22.65h-10.47V11.57Zm-16.37,0c0-2.84,2.34-5.14,5.24-5.14s5.24,2.3,5.24,5.14v22.65h-10.47V11.57Zm58.78,191.27c0,3.49-2.84,6.32-6.32,6.32H13.07c-3.49,0-6.32-2.84-6.32-6.32V27.53c0-3.49,2.84-6.32,6.32-6.32h78.02v13.01H24.05c-2.64,0-4.78,2.18-4.78,4.87v132.9c0,2.69,2.14,4.87,4.78,4.87h114.31c2.64,0,4.78-2.18,4.78-4.87V39.09c0-2.69-2.14-4.87-4.78-4.87h-8.65v-13.01h19.73c3.49,0,6.32,2.84,6.32,6.32v175.31Z"/>
  </g>
</svg>