<?xml version="1.0" encoding="UTF-8"?>
<svg id="Layer_2" data-name="Layer 2" xmlns="http://www.w3.org/2000/svg" viewBox="0 0 744.53 242.65">
  <defs>
    <style>
      .cls-1 {
        fill: none;
      }
    </style>
  </defs>
  <g id="logo">
    <g>
      <path d="M138.32,34.22H24.05c-2.64,0-4.78,2.18-4.78,4.87v132.9c0,2.69,2.14,4.87,4.78,4.87h114.31c2.64,0,4.78-2.18,4.78-4.87V39.09c0-2.69-2.14-4.87-4.78-4.87M135.91,165.98c0,1.4-1.11,2.53-2.48,2.53H28.98c-1.37,0-2.48-1.13-2.48-2.53v-3.78c.1.01.19.02.29.02h64.48c1.49,0,2.7-1.24,2.7-2.76s-1.21-2.76-2.7-2.76H26.8c-.1,0-.2,0-.29.02v-6.41h109.4v15.67ZM135.91,140.4c0,1.4-1.11,2.53-2.48,2.53H28.98c-1.37,0-2.48-1.13-2.48-2.53v-9.21c0-1.4,1.11-2.53,2.48-2.53h104.45c1.37,0,2.48,1.13,2.48,2.53v9.21ZM135.91,119.25c0,1.4-1.11,2.53-2.48,2.53H28.98c-1.37,0-2.48-1.13-2.48-2.53v-9.21c0-1.4,1.11-2.53,2.48-2.53h104.45c1.37,0,2.48,1.13,2.48,2.53v9.21ZM135.91,98.59c0,1.4-1.11,2.53-2.48,2.53H28.98c-1.37,0-2.48-1.13-2.48-2.53v-9.21c0-1.4,1.11-2.53,2.48-2.53h104.45c1.37,0,2.48,1.13,2.48,2.53v9.21ZM135.91,77.93c0,1.4-1.11,2.53-2.48,2.53H28.98c-1.37,0-2.48-1.13-2.48-2.53v-9.21c0-1.4,1.11-2.53,2.48-2.53h104.45c1.37,0,2.48,1.13,2.48,2.53v9.21ZM135.91,56.35H26.51v-11.74c0-1.4,1.11-2.53,2.48-2.53h104.45c1.37,0,2.48,1.13,2.48,2.53v11.74Z"/>
      <g>
        <path d="M149.44,14.46h-19.73v6.75h19.73c3.49,0,6.32,2.84,6.32,6.32v175.31c0,3.49-2.84,6.32-6.32,6.32H13.07c-3.49,0-6.32-2.84-6.32-6.32V27.53c0-3.49,2.84-6.32,6.32-6.32h78.02v-6.75H13.07C5.86,14.46,0,20.32,0,27.53v175.31c0,7.21,5.86,13.07,13.07,13.07h136.37c7.21,0,13.07-5.86,13.07-13.07V27.53c0-7.21-5.86-13.07-13.07-13.07Z"/>
        <g>
          <path class="cls-1" d="M118.58,6.43c-2.89,0-5.24,2.3-5.24,5.14v22.81h10.47V11.57c0-2.84-2.34-5.14-5.24-5.14Z"/>
          <path class="cls-1" d="M102.22,6.43c-2.89,0-5.24,2.3-5.24,5.14v22.81h10.47V11.57c0-2.84-2.34-5.14-5.24-5.14Z"/>
          <path d="M119.14,0h-17.48c-5.84,0-10.57,4.65-10.57,10.38v31.07h38.62V10.38c0-5.73-4.73-10.38-10.57-10.38ZM107.45,34.38h-10.47V11.57c0-2.84,2.34-5.14,5.24-5.14s5.24,2.3,5.24,5.14v22.81ZM123.82,34.38h-10.47V11.57c0-2.84,2.34-5.14,5.24-5.14s5.24,2.3,5.24,5.14v22.81Z"/>
        </g>
      </g>
      <path d="M20.03,194.27c0,2.16,1.75,3.91,3.91,3.91h116.26c2.16,0,3.91-1.75,3.91-3.91v-3.91H20.03v3.91Z"/>
    </g>
    <g>
      <path d="M180.45,106.4h8.67v99.33h-8.67v-99.33ZM180.45,64.21h8.67v19.15h-8.67v-19.15Z"/>
      <path d="M204.87,136.2c0-16.36,0-24.85-.2-29.8h8.45c.4,3.54.4,8.89.4,14.4,3.6-9.3,10.36-16,22.43-16,10.15,0,17.86,4.19,20.84,15.64,3.2-8.7,11.12-15.64,23.85-15.64,11.19,0,23.29,5.21,23.29,28.25v72.67h-8.66v-70.85c0-11.44-3.17-21.86-16.35-21.86-14.77,0-20.08,13.95-20.08,28.01v64.7h-8.67v-70.45c0-14.38-4.73-22.26-15.97-22.26-13.61,0-20.67,13.74-20.67,29.96v62.75h-8.67v-69.53Z"/>
      <path d="M328.47,193.9v48.75h-8.67v-107.06c0-13.7,0-23.03-.2-29.19h8.46c.2,1.6.4,9.29.4,15,3.76-10.05,11.46-16.59,24.58-16.59,19.06,0,29,17.25,29,50.05s-12.14,52.66-31.79,52.66c-13.05,0-19-6.7-21.79-13.61ZM372.98,155.27c0-25.78-6.33-42.26-21.5-42.26-17.93,0-23.42,17.14-23.42,43.21,0,24.2,2.94,43.09,22.06,43.09,14.98,0,22.86-18.11,22.86-44.04Z"/>
      <path d="M392.85,140.36c0-15.51,0-26.81-.2-33.96h8.45c.2,3.15.4,8.09.4,18.62,4.55-12.49,14.65-19.82,26.41-20.02v9.32c-17.65,1.16-26.4,15.83-26.4,33.73v57.68h-8.67v-65.36Z"/>
      <path d="M434.67,156.58c0,23.97,4.5,42.93,22.26,42.93s20.68-18.08,21.27-20.88h8.84c-.2,2.21-3.36,28.88-30.12,28.88s-31.12-26.63-31.12-51.08c0-31.39,9.98-51.63,32.1-51.63,24.34,0,29.94,21.46,29.94,45.54,0,.85,0,3.29-.2,6.24h-52.97ZM478.99,148.83c0-21.97-5.27-36.03-21.27-36.03-21.46,0-22.45,29.46-22.84,36.03h44.11Z"/>
      <path d="M488.39,199.14c10.14-18.23,32.24-58.62,46.51-84.74h-43.34v-8.01h53.44v7.18c-10.49,19.16-32.84,60.04-46.3,84.14h46.9l-1.61,8h-55.6v-6.58Z"/>
      <path d="M609.32,154.69c0,34.21-10.78,52.83-31.92,52.83-22.29,0-32.29-18.02-32.29-52.62s12.57-50.08,32.51-50.08,31.7,16.51,31.7,49.88ZM554.18,155.08c0,30.77,8.82,44.43,23.05,44.43s23.03-14.04,23.03-44.81c0-27.68-8.04-41.88-23.04-41.88-14.02,0-23.04,11.69-23.04,42.27Z"/>
      <path d="M619.93,137c0-20.27-.19-26.4-.2-30.6h8.46c.2,2.39.4,6.17.4,14.8,3.56-9.25,10.88-16.39,24.57-16.39s25.62,6.83,25.62,30.2v70.72h-8.87v-69.44c0-13.62-5.29-23.27-17.92-23.27-16.51,0-23.2,11.37-23.2,35.21v57.5h-8.87v-68.73Z"/>
      <path d="M695.52,178.06c.97,13.16,8.04,21.49,20.68,21.49s19.28-8.25,19.28-19.07c0-12.39-6.67-17.72-20.53-23.26-18.59-7.38-24.74-14.17-24.74-27.69s7.96-24.72,25.97-24.72c19.62,0,25.97,13.22,26.17,26.52h-8.84c-.39-5.52-1.95-18.56-17.73-18.56-11.59,0-16.52,7.08-16.52,16.52s3.38,13.61,18.41,19.53c17.95,7.17,26.87,13.56,26.87,31.2s-10.76,27.49-28.94,27.49-28.15-11.19-28.93-29.45h8.85Z"/>
    </g>
  </g>
</svg>